<?xml version="1.0" ?><svg style="enable-background:new 0 0 48 48;" version="1.1" viewBox="0 0 48 48" xml:space="preserve" xmlns="http://www.w3.org/2000/svg" xmlns:xlink="http://www.w3.org/1999/xlink"><g id="Padding__x26__Artboard"/><g id="Icons"><g><circle cx="23.96815" cy="37.56822" r="0.64536" style="fill:none;"/><path d="M20.72009,11.17114h3.72314c0.19336,0,0.3501-0.15674,0.3501-0.3501s-0.15674-0.3501-0.3501-0.3501    h-3.72314c-0.19336,0-0.3501,0.15674-0.3501,0.3501S20.52673,11.17114,20.72009,11.17114z" style="fill:none;"/><path d="M20.70935,13.97437c-0.12988-0.14453-0.35059-0.15576-0.49414-0.02637l-2.87012,2.58203    c-0.14404,0.12939-0.15576,0.35059-0.02637,0.49414c0.06934,0.07715,0.16455,0.11621,0.26025,0.11621    c0.0835,0,0.16699-0.02979,0.23389-0.08984l2.87012-2.58203C20.82703,14.33911,20.83875,14.11792,20.70935,13.97437z" style="fill:none;"/><ellipse cx="26.851" cy="10.82112" rx="0.36533" ry="0.3287" style="fill:none;"/><path d="M18.95691,16.84839c-0.14404,0.12939-0.15576,0.35059-0.02637,0.49414    c0.06934,0.07715,0.16455,0.11621,0.26025,0.11621c0.0835,0,0.16699-0.02979,0.23389-0.08984l1.78857-1.60938    c0.14404-0.12939,0.15576-0.35059,0.02637-0.49414c-0.12988-0.14404-0.35059-0.15527-0.49414-0.02637L18.95691,16.84839z" style="fill:none;"/><polygon points="32.94714,12.6828 32.94714,12.74121 33.01086,12.70813   " style="fill:none;"/><path d="M32.24695,12.40454h0.7002v-1.34131c0-1.35938-1.10645-2.46582-2.46582-2.46582H17.45496    c-1.35938,0-2.46582,1.10645-2.46582,2.46582v1.34131h0.7002H32.24695z M26.85101,10.49243    c0.20178,0,0.3653,0.14716,0.3653,0.32867c0,0.18158-0.16351,0.32874-0.3653,0.32874s-0.36536-0.14716-0.36536-0.32874    C26.48566,10.63959,26.64923,10.49243,26.85101,10.49243z M20.72009,10.47095h3.72314c0.19336,0,0.3501,0.15674,0.3501,0.3501    s-0.15674,0.3501-0.3501,0.3501h-3.72314c-0.19336,0-0.3501-0.15674-0.3501-0.3501S20.52673,10.47095,20.72009,10.47095z" style="fill:#377DFF;"/><path d="M15.68933,36.52466h-0.7002v0.41211c0,1.35938,1.10645,2.46582,2.46582,2.46582h13.02637    c1.35938,0,2.46582-1.10645,2.46582-2.46582v-0.41211h-0.7002H15.68933z M23.96814,38.21356    c-0.35638,0-0.64532-0.28894-0.64532-0.64532c0-0.35645,0.28894-0.64539,0.64532-0.64539    c0.35645,0,0.64539,0.28894,0.64539,0.64539C24.61353,37.92462,24.32458,38.21356,23.96814,38.21356z" style="fill:#377DFF;"/><path d="M15.68933,13.10474h-0.7002v22.71973h0.7002h16.55762h0.7002V13.10474h-0.7002H15.68933z     M21.23962,15.26538c0.12939,0.14355,0.11768,0.36475-0.02637,0.49414l-1.78857,1.60938    c-0.06689,0.06006-0.15039,0.08984-0.23389,0.08984c-0.0957,0-0.19092-0.03906-0.26025-0.11621    c-0.12939-0.14355-0.11768-0.36475,0.02637-0.49414l1.78857-1.60938C20.88904,15.11011,21.10974,15.12134,21.23962,15.26538z     M17.57898,17.14038c-0.0957,0-0.19092-0.03906-0.26025-0.11621c-0.12939-0.14355-0.11768-0.36475,0.02637-0.49414    l2.87012-2.58203c0.14355-0.12939,0.36426-0.11816,0.49414,0.02637c0.12939,0.14355,0.11768,0.36475-0.02637,0.49414    l-2.87012,2.58203C17.74597,17.1106,17.66248,17.14038,17.57898,17.14038z M29.56567,21.37842    c-0.0166,0.02637-0.38623,0.62109-0.97656,1.08496c-0.01123,0.31934-0.04688,1.00293-0.16211,1.49023    c-0.20752,0.875-0.76855,2.51855-2.2002,3.69434c-1.33691,1.09863-2.95361,1.4834-4.13916,1.4834    c-0.11816,0-0.23193-0.00391-0.34082-0.01074c-1.06982-0.07324-2.35498-0.4707-3.19824-0.99023    c-0.13867-0.08496-0.19971-0.25586-0.14746-0.41016s0.20996-0.25,0.3667-0.23633c0.01514,0.00391,1.15576,0.10938,2.23291-0.41113    c-0.48828-0.20703-1.0625-0.63672-1.43115-1.52832c-0.04834-0.11816-0.02832-0.25293,0.05078-0.35254    c0.01221-0.01465,0.0249-0.02832,0.03906-0.04102c-0.47461-0.39453-0.87744-1.01758-0.88916-1.94531    c-0.00146-0.12207,0.06055-0.23535,0.16309-0.30078c0.05859-0.03711,0.13916-0.06348,0.19336-0.05371    c-0.37012-0.64453-0.54346-1.51562,0.03174-2.44922c0.06055-0.09863,0.16553-0.16016,0.28076-0.16602    c0.13037-0.00488,0.22656,0.04688,0.2959,0.1377c0.01465,0.01953,1.40332,1.80664,3.76074,2.07422    c-0.0957-1.00586,0.61816-1.875,1.42725-2.30762c0.87598-0.4707,2.06396-0.53027,2.83643,0.33105    c0.19434-0.04395,0.56396-0.15527,1.08398-0.43652c0.12549-0.06738,0.2793-0.05273,0.38867,0.03711    c0.11035,0.09082,0.1543,0.23828,0.11182,0.375c-0.00439,0.01465-0.05957,0.18652-0.19385,0.41797    c0.1333-0.04785,0.28564-0.01074,0.38086,0.09961C29.63208,21.07959,29.64624,21.24756,29.56567,21.37842z" style="fill:#377DFF;"/></g></g></svg>