<?xml version="1.0" encoding="iso-8859-1"?>
<!-- Generator: Adobe Illustrator 19.0.0, SVG Export Plug-In . SVG Version: 6.00 Build 0)  -->
<svg version="1.1" id="Capa_1" xmlns="http://www.w3.org/2000/svg" xmlns:xlink="http://www.w3.org/1999/xlink" x="0px" y="0px"
	 viewBox="0 0 512 512" style="enable-background:new 0 0 512 512;" xml:space="preserve">
<path style="fill:#0E61C4;" d="M101,0v512h310V0H101z"/>
<path style="fill:#0C4EAD;" d="M256,0v512h155V0H256z"/>
<rect x="131" y="60" style="fill:#E6F9FF;" width="250" height="362"/>
<rect x="256" y="60" style="fill:#CCEFFF;" width="125" height="362"/>
<rect x="226" y="452" style="fill:#0C4EAD;" width="60" height="30"/>
<rect x="256" y="452" style="fill:#073E89;" width="30" height="30"/>
<path style="fill:#7E88FD;" d="M341,211v-30h-23.504l3.403-29.268l-29.799-3.465L287.294,181h-49.798l3.403-29.268l-29.799-3.465
	L207.294,181H171v30h32.806l-5.814,50H171v30h23.504l-3.403,29.268l29.799,3.465L224.706,291h49.798l-3.403,29.268l29.799,3.465
	L304.706,291H341v-30h-32.806l5.814-50H341z M277.992,261h-49.798l5.814-50h49.798L277.992,261z"/>
<polygon style="fill:#6E76E3;" points="341,211 341,181 317.496,181 320.899,151.732 291.101,148.268 287.294,181 256,181 256,211 
	283.806,211 277.992,261 256,261 256,291 274.504,291 271.101,320.268 300.899,323.732 304.706,291 341,291 341,261 308.194,261 
	314.008,211 "/>
<g>
</g>
<g>
</g>
<g>
</g>
<g>
</g>
<g>
</g>
<g>
</g>
<g>
</g>
<g>
</g>
<g>
</g>
<g>
</g>
<g>
</g>
<g>
</g>
<g>
</g>
<g>
</g>
<g>
</g>
</svg>
